<?xml version="1.0" encoding="UTF-8" standalone="no"?>
<svg
   xmlns:dc="http://purl.org/dc/elements/1.1/"
   xmlns:cc="http://creativecommons.org/ns#"
   xmlns:rdf="http://www.w3.org/1999/02/22-rdf-syntax-ns#"
   xmlns:svg="http://www.w3.org/2000/svg"
   xmlns="http://www.w3.org/2000/svg"
   xmlns:xlink="http://www.w3.org/1999/xlink"
   xmlns:sodipodi="http://sodipodi.sourceforge.net/DTD/sodipodi-0.dtd"
   xmlns:inkscape="http://www.inkscape.org/namespaces/inkscape"
   inkscape:version="1.0 (4035a4f, 2020-05-01)"
   sodipodi:docname="corporate_logo_black.svg"
   xml:space="preserve"
   enable-background="new 0 0 180 40"
   viewBox="0 0 180 40"
   height="40px"
   width="180px"
   y="0px"
   x="0px"
   id="レイヤー_1"
   version="1.1"><metadata
   id="metadata29"><rdf:RDF><cc:Work
       rdf:about=""><dc:format>image/svg+xml</dc:format><dc:type
         rdf:resource="http://purl.org/dc/dcmitype/StillImage" /></cc:Work></rdf:RDF></metadata><defs
   id="defs27" /><sodipodi:namedview
   inkscape:current-layer="レイヤー_1"
   inkscape:window-maximized="0"
   inkscape:window-y="23"
   inkscape:window-x="0"
   inkscape:cy="30.431655"
   inkscape:cx="170.28777"
   inkscape:zoom="13.9"
   showgrid="false"
   id="namedview25"
   inkscape:window-height="650"
   inkscape:window-width="1406"
   inkscape:pageshadow="2"
   inkscape:pageopacity="0"
   guidetolerance="10"
   gridtolerance="10"
   objecttolerance="10"
   borderopacity="1"
   bordercolor="#666666"
   pagecolor="#ffffff"
   inkscape:document-rotation="0" />
<g
   transform="scale(1.0016806,1.0077598)"
   id="g22">
	<defs
   id="defs11">
		<rect
   y="0"
   x="0"
   height="40"
   width="180"
   id="SVGID_1_" />
	</defs>
	<clipPath
   id="SVGID_2_">
		<use
   height="100%"
   width="100%"
   y="0"
   x="0"
   id="use13"
   overflow="visible"
   xlink:href="#SVGID_1_" />
	</clipPath>
	<path
   id="path16"
   d="M 25.858,29 C 24.724,29 23,28.218 23,27.09 V 23 H 43 V 14 H 23 V 9 H 43 V 0 H 0 v 9 h 11 v 5 H 0 v 9 h 10.825 l 0.004,4.815 c 0,6.353 4.738,11.876998 11.112,11.876998 H 43 V 29 Z"
   clip-path="url(#SVGID_2_)"
   sodipodi:nodetypes="ssccccccccccccccccccs" />
	<rect
   y="0"
   id="rect18"
   height="23"
   width="12"
   clip-path="url(#SVGID_2_)"
   x="46" />
	<path
   id="path20"
   d="m 130,0 v 7 h 8.053 l 0.012,-7 h 41.633 v 28.236 c 0,6.346 -4.754,11.455998 -11.132,11.455998 l -14.566,0 V 29 h 10.662 c 1.123,0 2.049,-0.833 2.049,-1.958 L 166.703,9 H 150 v 14 h -11.935 l -0.012,-6 h -8.006 l 0.003,11.345 c 0,6.346 -5.209,11.347 -11.58,11.347 l -13.47,-2e-6 V 29 h 10.022 C 116.153,29 118,28.249 118,27.124 V 17 h -12.944 l -0.003,6 H 94 V 17 H 84 v 11.018 c 0,6.346 -4.616,11.673998 -10.994,11.673998 H 58 V 29 h 12.164 c 1.128,0 2.039,-0.617 2.039,-1.742 L 72.215,0 H 84 V 7 H 94 V 0 h 11 v 7 h 13 V 0 Z"
   clip-path="url(#SVGID_2_)"
   sodipodi:nodetypes="cccccccccscccccccccccssccccccscccsccccccccccc" />
</g>
</svg>
